<?xml version="1.0" encoding="UTF-8"?>
<svg width="70px" height="70px" viewBox="0 0 70 70" version="1.1" xmlns="http://www.w3.org/2000/svg" xmlns:xlink="http://www.w3.org/1999/xlink">
    <!-- Generator: Sketch 49.1 (51147) - http://www.bohemiancoding.com/sketch -->
    <title>icon-商户经营数据</title>
    <desc>Created with Sketch.</desc>
    <defs></defs>
    <g id="工作台" stroke="none" stroke-width="1" fill="none" fill-rule="evenodd">
        <g transform="translate(-262.000000, -150.000000)" fill="#55AAEF" id="快捷操作">
            <g transform="translate(190.000000, 70.000000)">
                <path d="M87,80 L127,80 C135.284271,80 142,86.7157288 142,95 L142,135 C142,143.284271 135.284271,150 127,150 L87,150 C78.7157288,150 72,143.284271 72,135 L72,95 C72,86.7157288 78.7157288,80 87,80 Z M121.754464,131 C122.442969,131 123,130.442969 123,129.754464 C123,129.06596 122.442969,128.508929 121.754464,128.508929 L94.4910714,128.508929 L94.4910714,101.245536 C94.4910714,100.557031 93.9340402,100 93.2455357,100 C92.5570312,100 92,100.557031 92,101.245536 L92,129.754464 C92,130.442969 92.5570312,131 93.2455357,131 L121.754464,131 Z M98.9611607,110.690848 C97.6014509,110.721987 96.4908482,111.836049 96.4631696,113.195759 C96.4424107,114.237165 97.0409598,115.140179 97.9162946,115.558817 L97.9162946,125.429688 C97.9162946,126.042076 98.4110491,126.53683 99.0234375,126.53683 C99.6358259,126.53683 100.13058,126.042076 100.13058,125.429688 L100.13058,115.558817 C100.988616,115.147098 101.583705,114.268304 101.583705,113.251116 C101.583705,111.81529 100.403906,110.65625 98.9611607,110.690848 Z M108.562165,106.608259 C107.202455,106.639397 106.091853,107.75346 106.064174,109.11317 C106.043415,110.154576 106.641964,111.057589 107.517299,111.476228 L107.517299,125.429688 C107.517299,126.042076 108.012054,126.53683 108.624442,126.53683 C109.23683,126.53683 109.731585,126.042076 109.731585,125.429688 L109.731585,111.476228 C110.589621,111.064509 111.18471,110.185714 111.18471,109.168527 C111.18471,107.732701 110.004911,106.573661 108.562165,106.608259 Z M120.785714,113.631696 C120.785714,112.195871 119.605915,111.03683 118.16317,111.071429 C116.80346,111.102567 115.692857,112.216629 115.665179,113.576339 C115.64442,114.617746 116.242969,115.520759 117.118304,115.939397 L117.118304,125.429687 C117.118304,126.042076 117.613058,126.53683 118.225446,126.53683 C118.837835,126.53683 119.332589,126.042076 119.332589,125.429687 L119.332589,115.939397 C120.190625,115.527679 120.785714,114.648884 120.785714,113.631696 Z" id="icon-商户经营数据"></path>
            </g>
        </g>
    </g>
</svg>