<?xml version="1.0" encoding="UTF-8"?>
<svg width="70px" height="70px" viewBox="0 0 70 70" version="1.1" xmlns="http://www.w3.org/2000/svg" xmlns:xlink="http://www.w3.org/1999/xlink">
    <!-- Generator: Sketch 49.1 (51147) - http://www.bohemiancoding.com/sketch -->
    <title>icon-更多</title>
    <desc>Created with Sketch.</desc>
    <defs></defs>
    <g id="工作台" stroke="none" stroke-width="1" fill="none" fill-rule="evenodd">
        <g transform="translate(-567.000000, -150.000000)" fill="#EBEBEB" id="快捷操作">
            <g transform="translate(190.000000, 70.000000)">
                <path d="M392,80 L432,80 C440.284271,80 447,86.7157288 447,95 L447,135 C447,143.284271 440.284271,150 432,150 L392,150 C383.715729,150 377,143.284271 377,135 L377,95 C377,86.7157288 383.715729,80 392,80 Z M424.51416,114.269531 L413.62793,114.269531 L413.62793,103.656738 C413.62793,102.976562 413.077637,102.42627 412.397461,102.42627 C411.717285,102.42627 411.166992,102.976562 411.166992,103.656738 L411.166992,114.269531 L400.52002,114.269531 C399.839844,114.269531 399.289551,114.819824 399.289551,115.5 C399.289551,116.180176 399.839844,116.730469 400.52002,116.730469 L411.166992,116.730469 L411.166992,127.377441 C411.166992,128.057617 411.717285,128.60791 412.397461,128.60791 C413.077637,128.60791 413.62793,128.057617 413.62793,127.377441 L413.62793,116.730469 L424.51416,116.730469 C425.194336,116.730469 425.744629,116.180176 425.744629,115.5 C425.744629,114.819824 425.194336,114.269531 424.51416,114.269531 Z" id="icon-更多"></path>
            </g>
        </g>
    </g>
</svg>