<?xml version="1.0" encoding="UTF-8"?>
<svg width="100px" height="66px" viewBox="0 0 100 66" version="1.1" xmlns="http://www.w3.org/2000/svg" xmlns:xlink="http://www.w3.org/1999/xlink">
    <!-- Generator: Sketch 49.1 (51147) - http://www.bohemiancoding.com/sketch -->
    <title>暂无相关数据</title>
    <desc>Created with Sketch.</desc>
    <defs></defs>
    <g id="工作台" stroke="none" stroke-width="1" fill="none" fill-rule="evenodd">
        <g id="首页" transform="translate(-1205.000000, -144.000000)" fill="#E3E3E3" fill-rule="nonzero">
            <g id="公告" transform="translate(1080.000000, 70.000000)">
                <g id="空" transform="translate(125.000000, 74.000000)">
                    <g id="暂无相关数据">
                        <path d="M10.0408217,44.6323615 L11.3882438,44.6323615 C11.7549978,44.6403344 12.0420226,44.9353322 12.0420226,45.3020862 C12.0420226,45.6688401 11.7549978,45.9718108 11.3882438,45.9718108 L10.0408217,45.9718108 L10.0408217,47.3192329 C10.0328488,47.678014 9.73785102,47.9730117 9.37109713,47.9730117 C9.19569305,47.9730117 9.02826193,47.9092284 8.90069528,47.7896347 C8.7731287,47.670041 8.70137245,47.5026099 8.70137251,47.3272058 L8.70137251,45.9797837 L7.35395038,45.9797837 C6.98719643,45.9718108 6.70017162,45.676813 6.70017156,45.3100591 C6.70017156,44.9433051 6.98719636,44.6403344 7.35395038,44.6403344 L8.70137251,44.6403344 L8.70137251,43.2929123 C8.70934541,42.9261584 9.00434318,42.6391335 9.37109713,42.6391335 C9.73785108,42.6391335 10.0408217,42.9261584 10.0408217,43.2929123 L10.0408217,44.6323615 Z M97.9740685,39.3064563 L97.9740685,37.9590342 C97.9740685,37.7836301 97.9023123,37.616199 97.7747457,37.4966053 C97.6471791,37.3770116 97.479748,37.3052554 97.3043439,37.3132283 C96.9455628,37.3132283 96.6425922,37.6002531 96.6346193,37.9670071 L96.6346193,39.3064563 L95.2871971,39.3064563 C95.111793,39.3064563 94.9443619,39.3782125 94.8247682,39.5057791 C94.7051746,39.6333458 94.6334184,39.8007769 94.6413913,39.9761809 C94.6413913,40.334962 94.936389,40.6459055 95.2951701,40.6459055 L96.6425922,40.6459055 L96.6425922,41.9933277 C96.6425922,42.3600816 96.93759,42.6471064 97.3123168,42.6471064 C97.6790707,42.6471064 97.9740685,42.3600816 97.9820414,41.9933277 L97.9820414,40.6459055 L99.3294635,40.6459055 C99.6962175,40.6459055 99.9832423,40.3509078 99.9832423,39.9761809 C99.9832423,39.6173999 99.6962175,39.3144292 99.3294635,39.3064563 L97.9740685,39.3064563 Z M49.5784925,61.2877748 L16.0364515,61.2877748 C15.6856434,61.2877748 15.3428082,61.1442624 15.095648,60.8971021 C14.8484877,60.6499418 14.7049753,60.3071066 14.7049753,59.9562985 C14.7049753,59.2227906 15.3109166,58.6248221 16.0364515,58.6248222 L22.0799189,58.6248222 C21.6095171,57.8195581 21.3703297,56.9026732 21.3703297,55.9698425 L21.3703297,17.3171649 C21.3703297,15.9059595 21.9364065,14.5505645 22.9330205,13.5459776 C23.9296345,12.5493635 25.2930024,11.9912597 26.7042078,11.9912597 L30.6986368,11.9912597 L30.6986368,10.6518105 C30.6986368,9.24060504 31.2647136,7.88521001 32.2613276,6.88062309 C33.2640279,5.88511857 34.6195616,5.32628329 36.0325149,5.32590523 L67.9959193,5.32590523 C69.4071247,5.32590523 70.7704927,5.88400906 71.7671066,6.88062309 C72.7716936,7.87723712 73.3297974,9.23263214 73.3297974,10.6518105 L73.3297974,49.304488 C73.3297974,50.2692104 73.0746642,51.1781223 72.6202082,51.9594677 L79.987179,51.9594677 C80.7206869,51.9594677 81.3186553,52.5494632 81.3186553,53.290944 C81.3186553,54.0244519 80.7286598,54.6224203 79.987179,54.6224203 L64.0014903,54.6224203 L64.0014903,55.9618696 C64.0014903,56.926592 63.7463571,57.8355039 63.2919011,58.6168492 L64.0094633,58.6168492 C64.7429712,58.6168492 65.3409396,59.2068447 65.3409395,59.9483256 C65.3409395,60.6818335 64.7349982,61.2798019 64.0094633,61.2798018 L57.0012736,61.2798018 C57.6072149,62.3003346 57.4796483,63.6397838 56.594655,64.524777 C56.0923616,65.0270705 55.414664,65.3061224 54.7130478,65.3061224 C54.0034587,65.3061224 53.3257612,65.0270705 52.8314406,64.524777 L49.5784925,61.2877748 Z M54.4499417,58.6248222 L58.683558,58.6248222 C60.1505739,58.6248222 61.3385378,57.4368583 61.3385377,55.9538966 L61.3385377,17.2533816 C61.3385377,15.8102846 60.1904383,14.6542123 58.7632871,14.6542123 L26.60056,14.6542123 C25.1813817,14.6542123 24.0253094,15.8182575 24.0253094,17.2533816 L24.0253094,55.9538966 C24.0253094,57.4288853 25.2212462,58.6248221 26.6802891,58.6248222 L46.907567,58.6248222 L46.2218965,57.9391517 C45.544199,57.2694271 45.2810929,56.280786 45.5282532,55.3639011 L44.268533,54.1041811 C40.3538332,57.0222668 34.844551,56.4242985 31.6474133,52.7248673 C28.4502756,49.033409 28.6495984,43.500208 32.0938964,40.0399642 C35.5541402,36.5717475 41.103287,36.3644518 44.8027182,39.5695624 C48.5021494,42.7746731 49.1001177,48.2999011 46.1581132,52.2146009 L47.4178333,53.474321 C48.3347182,53.2271607 49.3233592,53.4902668 49.9930839,54.1679643 L54.4499417,58.6248222 Z M64.0014903,51.9594677 L68.0118651,51.9594677 C69.4788809,51.9514948 70.6668448,50.7635309 70.6668448,49.2965151 L70.6668448,10.6597834 C70.6668448,9.18479464 69.4788809,7.99683074 68.0118651,7.99683074 L36.0085962,7.99683074 C34.5415804,8.00480364 33.3615893,9.19276754 33.3536165,10.6597834 L33.3536165,11.9912597 L58.6596393,11.9912597 C60.0708447,11.9912597 61.4342127,12.5493635 62.4308267,13.5459776 C63.4354136,14.5425916 63.9935174,15.8979866 63.9935174,17.3171649 L63.9935174,51.9594677 L64.0014903,51.9594677 Z M17.0410385,2.99781492 L19.0262936,2.99781492 C19.5843974,2.99781492 20.0388534,3.44429802 20.0388534,3.99442895 C20.0388534,4.54455989 19.5843974,4.99104292 19.0262936,4.99104292 L17.0410385,4.99104292 L17.0410385,6.97629802 C17.0410385,7.53440185 16.5945554,7.98885784 16.0444245,7.98885784 C15.7813184,7.98885784 15.5261852,7.87723705 15.3348353,7.68588718 C15.1434854,7.49453731 15.0398375,7.23940408 15.0478105,6.97629802 L15.0478105,4.99901582 L13.0625554,4.99901582 C12.7914763,4.99901582 12.5363432,4.89536798 12.3449933,4.71199101 C12.1536434,4.52064114 12.0499955,4.26550791 12.0499955,4.00240185 C12.0499955,3.45227092 12.5044515,3.00578782 13.0625554,3.00578782 L15.0478105,3.00578782 L15.0478105,1.01255982 C15.0478105,0.454455995 15.4942936,-1.77635684e-15 16.0444245,-1.77635684e-15 C16.5945554,-1.77635684e-15 17.0410385,0.454455995 17.0410385,1.01255982 L17.0410385,2.99781492 Z M1.38223922,59.9562985 C1.38223922,59.2227906 1.98818055,58.6248221 2.71371556,58.6248222 L10.7185193,58.6248222 C11.4520272,58.6248222 12.0499956,59.2148177 12.0499955,59.9562985 C12.0499955,60.6898064 11.4440542,61.2877748 10.7185193,61.2877748 L2.71371556,61.2877748 C2.36290746,61.2877748 2.02007219,61.1442624 1.77291193,60.8971021 C1.51777876,60.6499418 1.38223922,60.3071066 1.38223922,59.9562985 Z M43.3994857,51.3455535 C45.998655,48.7463842 45.998655,44.5287137 43.3994857,41.9215715 C40.8003163,39.3224022 36.5826459,39.3224022 33.9755036,41.9215715 C31.3763343,44.5207408 31.3763343,48.7384113 33.9755036,51.3455535 C36.5826459,53.9447228 40.8003163,53.9447228 43.3994857,51.3455535 Z M29.3591876,19.9880904 C29.3591876,19.2545825 29.957156,18.6566141 30.6906638,18.6566142 L45.3448762,18.6566142 C46.0783841,18.6566142 46.6763526,19.2545826 46.6763525,19.9880904 C46.6763524,20.7215983 46.0783841,21.3195668 45.3448762,21.3195668 L30.6906638,21.3195668 C30.3398557,21.3195668 29.9970205,21.1840273 29.7498603,20.9288941 C29.5027,20.6817338 29.3591876,20.3388986 29.3591876,19.9880904 Z M29.3591876,26.645472 C29.3591876,25.9119641 29.949183,25.3139957 30.6826909,25.3139957 L52.0182036,25.3139957 C52.7517115,25.3139957 53.341707,25.9039912 53.341707,26.645472 C53.341707,27.3789799 52.7517115,27.9769483 52.0182036,27.9769483 L30.6826909,27.9769483 C30.3318828,27.9769483 29.9890476,27.8334359 29.7418873,27.5862756 C29.494727,27.3391154 29.3591875,26.9962802 29.3591876,26.645472 Z M29.3591876,33.3108265 C29.3591876,32.5773186 29.957156,31.9793501 30.6906638,31.9793501 L40.0189709,31.9793501 C40.7524788,31.9793501 41.3504473,32.5693456 41.3504473,33.3108265 C41.3504473,34.0443344 40.7524788,34.6423028 40.0189709,34.6423028 L30.6906638,34.6423028 C30.3398557,34.6423028 29.9970205,34.5067633 29.7498603,34.2516301 C29.5027,34.0044698 29.3591876,33.6616346 29.3591876,33.3108265 Z M4.04519184,25.3139957 C2.61804056,25.3139957 1.29453718,24.5485962 0.584948023,23.3127948 C-0.132614031,22.0769934 -0.132614031,20.5541672 0.584948023,19.3183659 C1.30251008,18.0825645 2.61804056,17.317165 4.04519184,17.3171649 C6.25368846,17.3171649 8.03962079,19.1030972 8.03962079,21.3115939 C8.04759369,23.5280634 6.25368852,25.3139957 4.04519184,25.3139957 Z M4.04519184,23.3127948 C4.76275389,23.3127948 5.41653272,22.930095 5.77531378,22.3161808 C6.13409483,21.6942937 6.13409483,20.936867 5.77531378,20.3149798 C5.41653272,19.6930927 4.75478106,19.3183658 4.04519184,19.3183659 C2.94492997,19.3183659 2.04399094,20.211332 2.04399094,21.3195668 C2.05196384,22.4198286 2.94492997,23.3127948 4.04519184,23.3127948 Z M86.6525334,17.3171649 C85.2253821,17.3171649 83.9018788,16.5517654 83.1922896,15.315964 C82.4747276,14.0801627 82.4747276,12.5573365 83.1922896,11.3215351 C83.9098517,10.0857337 85.2253821,9.32033418 86.6525334,9.32033418 C88.86103,9.32033418 90.6469624,11.1062665 90.6469624,13.3147631 C90.6469624,15.5312326 88.8610301,17.3171649 86.6525334,17.3171649 Z M86.6525334,15.3239369 C87.3700955,15.3239369 88.0238743,14.9412371 88.3826554,14.3273229 C88.7414364,13.7054358 88.7414364,12.9480091 88.3826554,12.326122 C88.0238743,11.7042349 87.3621226,11.329508 86.6525334,11.329508 C85.5522716,11.329508 84.6513325,12.2224741 84.6513325,13.3307089 C84.6513325,14.4229979 85.5522716,15.3239369 86.6525334,15.3239369 Z" id="Shape"></path>
                    </g>
                </g>
            </g>
        </g>
    </g>
</svg>