<?xml version="1.0" encoding="UTF-8"?>
<svg width="70px" height="70px" viewBox="0 0 70 70" version="1.1" xmlns="http://www.w3.org/2000/svg" xmlns:xlink="http://www.w3.org/1999/xlink">
    <!-- Generator: Sketch 49.1 (51147) - http://www.bohemiancoding.com/sketch -->
    <title>icon-存疑商品查询</title>
    <desc>Created with Sketch.</desc>
    <defs></defs>
    <g id="工作台" stroke="none" stroke-width="1" fill="none" fill-rule="evenodd">
        <g transform="translate(-418.000000, -150.000000)" fill="#F5B23C" id="快捷操作">
            <g transform="translate(190.000000, 70.000000)">
                <path d="M243,80 L283,80 C291.284271,80 298,86.7157288 298,95 L298,135 C298,143.284271 291.284271,150 283,150 L243,150 C234.715729,150 228,143.284271 228,135 L228,95 C228,86.7157288 234.715729,80 243,80 Z M278.18278,128.439616 L271.152018,121.412272 C273.035319,119.139323 274.166667,116.223796 274.166667,113.041667 C274.166667,105.792155 268.291178,99.9166667 261.041667,99.9166667 C253.792155,99.9166667 247.916667,105.792155 247.916667,113.041667 C247.916667,120.291178 253.792155,126.166667 261.041667,126.166667 C264.223796,126.166667 267.139323,125.035319 269.412272,123.152018 L276.443034,130.18278 C276.682292,130.422038 276.996745,130.541667 277.314616,130.541667 C277.632487,130.541667 277.943522,130.422038 278.186198,130.18278 C278.661296,129.700846 278.661296,128.921549 278.18278,128.439616 Z M265.191081,122.868327 C263.878581,123.425456 262.484049,123.705729 261.041667,123.705729 C259.599284,123.705729 258.204753,123.425456 256.892253,122.868327 C255.624186,122.331706 254.482585,121.562663 253.501628,120.581706 C252.520671,119.600749 251.751628,118.459147 251.215007,117.191081 C250.657878,115.878581 250.377604,114.484049 250.377604,113.041667 C250.377604,111.599284 250.657878,110.204753 251.215007,108.892253 C251.751628,107.624186 252.520671,106.482585 253.501628,105.501628 C254.482585,104.520671 255.624186,103.751628 256.892253,103.215007 C258.204753,102.657878 259.599284,102.377604 261.041667,102.377604 C262.484049,102.377604 263.878581,102.657878 265.191081,103.215007 C266.459147,103.751628 267.600749,104.520671 268.581706,105.501628 C269.562663,106.482585 270.331706,107.624186 270.868327,108.892253 C271.425456,110.204753 271.705729,111.599284 271.705729,113.041667 C271.705729,114.484049 271.425456,115.878581 270.868327,117.191081 C270.331706,118.459147 269.562663,119.600749 268.581706,120.581706 C267.600749,121.562663 266.462565,122.331706 265.191081,122.868327 Z M264.939776,106.84673 C263.977567,105.835428 262.620165,105.258594 261.211215,105.258594 C259.878359,105.261048 258.626506,105.781427 257.683934,106.726454 C256.741361,107.669026 256.223437,108.923334 256.223437,110.25619 C256.223437,110.744659 256.618631,111.139852 257.107099,111.139852 C257.595567,111.139852 257.99076,110.744659 257.99076,110.25619 C257.99076,108.479049 259.436529,107.028371 261.21367,107.025917 C262.141515,107.025917 263.030085,107.403927 263.656012,108.064219 C264.210755,108.648417 264.493036,109.389711 264.451307,110.158006 C264.416943,110.810933 264.385033,111.427042 262.494979,113.317095 C261.358492,114.453582 260.330009,115.58516 260.19255,116.969563 C260.145912,117.455576 260.499377,117.887589 260.985391,117.936681 C261.014846,117.939136 261.044302,117.94159 261.073757,117.94159 C261.522952,117.94159 261.908326,117.600399 261.952509,117.14384 C262.023693,116.419729 262.691348,115.621979 263.744378,114.568949 C265.938804,112.374523 266.157265,111.358312 266.216176,110.25619 C266.28736,108.994518 265.833256,107.784393 264.939776,106.84673 Z M261.05412,121.466418 C261.639759,121.466418 262.114514,120.991663 262.114514,120.406024 C262.114514,120.027182 261.912404,119.677117 261.584317,119.487696 C261.25623,119.298275 260.85201,119.298275 260.523923,119.487696 C260.195836,119.677117 259.993726,120.027182 259.993726,120.406024 C259.993726,120.991663 260.468481,121.466418 261.05412,121.466418 Z" id="icon-存疑商品查询"></path>
            </g>
        </g>
    </g>
</svg>